<?xml version="1.0" encoding="UTF-8" standalone="no"?>
<svg
   xmlns:dc="http://purl.org/dc/elements/1.1/"
   xmlns:cc="http://creativecommons.org/ns#"
   xmlns:rdf="http://www.w3.org/1999/02/22-rdf-syntax-ns#"
   xmlns:svg="http://www.w3.org/2000/svg"
   xmlns="http://www.w3.org/2000/svg"
   xmlns:sodipodi="http://sodipodi.sourceforge.net/DTD/sodipodi-0.dtd"
   xmlns:inkscape="http://www.inkscape.org/namespaces/inkscape"
   viewBox="0 0 4096 4096"
   version="1.1"
   labelledby="logoTitle"
   role="img"
   id="svg20"
   sodipodi:docname="Calvin-klein-logo.svg"
   width="4096"
   height="4096"
   inkscape:export-filename="G:\Users\suitedoalex\sites\svg\calvin-klein-logo-0.png"
   inkscape:export-xdpi="96"
   inkscape:export-ydpi="96"
   inkscape:version="0.92.2 (5c3e80d, 2017-08-06)">
  <metadata
     id="metadata26">
    <rdf:RDF>
      <cc:Work
         rdf:about="">
        <dc:format>image/svg+xml</dc:format>
        <dc:type
           rdf:resource="http://purl.org/dc/dcmitype/StillImage" />
        <dc:title>Calvin Klein</dc:title>
      </cc:Work>
    </rdf:RDF>
  </metadata>
  <defs
     id="defs24" />
  <sodipodi:namedview
     pagecolor="#ffffff"
     bordercolor="#666666"
     borderopacity="1"
     objecttolerance="10"
     gridtolerance="10"
     guidetolerance="10"
     inkscape:pageopacity="0"
     inkscape:pageshadow="2"
     inkscape:window-width="1600"
     inkscape:window-height="837"
     id="namedview22"
     showgrid="false"
     inkscape:zoom="0.11313708"
     inkscape:cx="2320.8927"
     inkscape:cy="2038.0439"
     inkscape:window-x="-8"
     inkscape:window-y="-8"
     inkscape:window-maximized="1"
     inkscape:current-layer="svg20" />
  <title
     id="logoTitle">Calvin Klein</title>
  <g
     id="g18"
     style="fill:currentColor;fill-rule:evenodd;stroke:none;stroke-width:1"
     transform="matrix(18.066884,0,0,18.066884,326.94015,1806.3889)"
     inkscape:export-filename="G:\Users\suitedoalex\sites\svg\calvin-klein-logo-4.png"
     inkscape:export-xdpi="11.243831"
     inkscape:export-ydpi="11.243831">
    <g
       transform="translate(-733,-317)"
       id="g16"
       style="fill:currentColor">
      <g
         transform="translate(733,317)"
         id="g14">
        <path
           d="m 3.6769014,13.40615 c 0,5.734789 4.1059624,9.970094 9.4821596,9.970094 4.985493,0 7.494742,-3.095305 8.277042,-4.626901 h 2.833944 c -0.716291,2.346009 -4.10507,7.266385 -11.110986,7.266385 -7.0710328,0 -12.41422532,-5.344085 -12.41422532,-12.642582 0,-7.2012681 5.40830982,-12.64258262 12.41422532,-12.64258262 7.005916,0 10.394695,4.82225352 11.143991,7.29849762 H 21.403099 C 20.522676,6.4653521 18.079437,3.370047 13.159061,3.370047 c -5.3761972,0 -9.4821596,4.2683098 -9.4821596,10.036103"
           id="Fill-1"
           inkscape:connector-curvature="0" />
        <path
           d="M 38.211408,15.68615 34.073333,4.7384038 29.902253,15.68615 Z m 0.977653,2.509249 h -10.26446 l -2.801831,7.39662 H 23.320047 L 32.671972,1.1542723 h 2.769718 l 9.417042,24.4377467 h -2.86784 z"
           id="Fill-2"
           inkscape:connector-curvature="0" />
        <polyline
           id="Fill-3"
           points="58.6074178 25.5920188 46.3885446 25.5920188 46.3885446 1.1542723 49.255493 1.1542723 49.255493 22.9855399 58.6074178 22.9855399 58.6074178 25.5920188" />
        <polyline
           id="Fill-4"
           points="66.5178404 25.5920188 63.8462441 25.5920188 54.7547887 1.1542723 57.7849765 1.1542723 65.2467136 21.6501878 72.7084507 1.1542723 75.5762911 1.1542723 66.5178404 25.5920188" />
        <polygon
           id="Fill-5"
           points="77.367465,1.1542723 77.367465,25.592019 80.202301,25.592019 80.202301,1.1542723 " />
        <polyline
           id="Fill-6"
           points="86.9780751 5.87840376 86.9780751 25.5920188 84.3064789 25.5920188 84.3064789 1.1542723 86.9780751 1.1542723 100.599202 20.9330047 100.599202 1.1542723 103.270798 1.1542723 103.270798 25.5920188 100.794554 25.5920188 86.9780751 5.87840376" />
        <polyline
           id="Fill-7"
           points="120.049671 14.3829108 116.921362 17.8698122 116.921362 25.5920188 114.086526 25.5920188 114.086526 1.1542723 116.921362 1.1542723 116.921362 14.1875587 128.390939 1.1542723 131.779718 1.1542723 121.971972 12.2001408 131.779718 25.5920188 128.521174 25.5920188 120.049671 14.3829108" />
        <polyline
           id="Fill-8"
           points="145.627418 25.5920188 133.408545 25.5920188 133.408545 1.1542723 136.275493 1.1542723 136.275493 22.9855399 145.627418 22.9855399 145.627418 25.5920188" />
        <polyline
           id="Fill-9"
           points="147.418592 1.1542723 160.418873 1.1542723 160.418873 3.76075117 150.253427 3.76075117 150.253427 11.874554 160.158404 11.874554 160.158404 14.4810329 150.253427 14.4810329 150.253427 22.9855399 160.418873 22.9855399 160.418873 25.5920188 147.418592 25.5920188 147.418592 1.1542723" />
        <polygon
           id="Fill-10"
           points="163.93789,1.1542723 163.93789,25.592019 166.77272,25.592019 166.77272,1.1542723 " />
        <polyline
           id="Fill-11"
           points="173.48338 5.87840376 173.48338 25.5920188 170.811784 25.5920188 170.811784 1.1542723 173.48338 1.1542723 187.104507 20.9330047 187.104507 1.1542723 189.776103 1.1542723 189.776103 25.5920188 187.299859 25.5920188 173.48338 5.87840376" />
      </g>
    </g>
  </g>
</svg>
